
<svg width="80" height="80" xmlns="http://www.w3.org/2000/svg">
  <circle cx="40" cy="40" r="35" fill="#F5F5DC" stroke="#8B4513" stroke-width="2"/>
  
  <!-- Coffee maker -->
  <rect x="30" y="20" width="20" height="30" fill="#8B4513" rx="2"/>
  <rect x="32" y="22" width="16" height="26" fill="#654321" rx="1"/>
  
  <!-- Spout -->
  <path d="M30 35 Q25 35 25 40 Q25 45 30 45" fill="#8B4513"/>
  
  <!-- Coffee stream -->
  <path d="M25 42 Q20 45 20 50" stroke="#8B4513" stroke-width="2" fill="none"/>
  <path d="M25 44 Q20 47 20 52" stroke="#A0522D" stroke-width="1" fill="none"/>
  
  <!-- Cup -->
  <path d="M15 50 Q15 60 25 60 L35 60 Q45 60 45 50 L45 45 L15 45 Z" fill="#FFF" stroke="#8B4513" stroke-width="2"/>
  <path d="M17 47 L43 47 L42 55 L18 55 Z" fill="#8B4513"/>
</svg>
