
<svg width="80" height="80" xmlns="http://www.w3.org/2000/svg">
  <circle cx="40" cy="40" r="35" fill="#F5F5DC" stroke="#8B4513" stroke-width="2"/>
  
  <!-- Coffee beans -->
  <ellipse cx="30" cy="30" rx="4" ry="8" fill="#8B4513" transform="rotate(15 30 30)"/>
  <path d="M30 26 Q30 30 30 34" stroke="#654321" stroke-width="1" fill="none"/>
  
  <ellipse cx="45" cy="35" rx="4" ry="8" fill="#A0522D" transform="rotate(-20 45 35)"/>
  <path d="M45 31 Q45 35 45 39" stroke="#654321" stroke-width="1" fill="none"/>
  
  <ellipse cx="35" cy="50" rx="4" ry="8" fill="#8B4513" transform="rotate(45 35 50)"/>
  <path d="M35 46 Q35 50 35 54" stroke="#654321" stroke-width="1" fill="none"/>
  
  <!-- Selection hand -->
  <path d="M50 15 Q55 15 55 20 Q55 25 50 25 L45 25 Q40 25 40 20 Q40 15 45 15 Z" fill="#FDBCB4" stroke="#E8AA9B" stroke-width="1"/>
</svg>
